<?xml version="1.0" encoding="utf-8"?>
<!-- Generator: Adobe Illustrator 16.0.0, SVG Export Plug-In . SVG Version: 6.00 Build 0)  -->
<!DOCTYPE svg PUBLIC "-//W3C//DTD SVG 1.1//EN" "http://www.w3.org/Graphics/SVG/1.1/DTD/svg11.dtd">
<svg version="1.1" id="Layer_1" xmlns="http://www.w3.org/2000/svg" xmlns:xlink="http://www.w3.org/1999/xlink" x="0px" y="0px"
	 width="546.334px" height="241.333px" viewBox="0 176.834 546.334 241.333" enable-background="new 0 176.834 546.334 241.333"
	 xml:space="preserve">
<g id="Layer_1_1_">
</g>
<g>
	<path fill="#FFFFFF" d="M531.427,190.862v1.424h-2.749v7.159h-1.698v-7.159h-2.716v-1.424H531.427z M540.704,199.445l-0.316-5.045
		c-0.023-0.663-0.023-1.484-0.06-2.398h-0.092c-0.229,0.755-0.509,1.767-0.733,2.554l-1.545,4.77h-1.769l-1.539-4.891
		c-0.163-0.636-0.413-1.678-0.604-2.433h-0.092c0,0.786-0.038,1.611-0.065,2.398l-0.315,5.045h-1.643l0.628-8.583h2.555l1.49,4.201
		c0.218,0.662,0.354,1.299,0.573,2.176h0.023c0.223-0.761,0.415-1.514,0.598-2.11l1.487-4.267h2.464l0.658,8.583H540.704z"/>
	<g>
		<path fill="#FFFFFF" d="M4,252.941V180.95h12.393v27.475c1.754-5.063,8.06-8.675,16.633-8.675c7.329,0,13.53,2.583,18.487,7.85
			c5.06,5.164,7.54,11.568,7.54,19.318c0,7.739-2.48,14.15-7.54,19.412c-4.957,5.161-11.158,7.743-18.487,7.743
			c-8.573,0-14.878-3.617-16.633-8.671v7.539H4z M42.316,238.272c2.99-2.994,4.439-6.821,4.439-11.354
			c0-4.549-1.449-8.375-4.439-11.365c-2.891-2.994-6.508-4.545-10.943-4.545c-4.438,0-8.268,1.551-11.36,4.545
			c-3.003,2.99-4.544,6.816-4.544,11.365c0,4.533,1.541,8.36,4.544,11.354c3.093,2.996,6.922,4.542,11.36,4.542
			C35.809,242.814,39.426,241.269,42.316,238.272z"/>
		<path fill="#FFFFFF" d="M67.623,252.941v-52.058h12.295v7.746c2.476-5.476,8.155-8.779,15.496-8.779
			c1.443,0,2.687,0.11,3.711,0.313v11.976c-1.546-0.304-3.297-0.517-5.165-0.517c-8.567,0-14.042,5.376-14.042,13.947v27.371H67.623
			z"/>
		<path fill="#FFFFFF" d="M102.233,226.918c0-8.27,2.577-14.881,7.638-19.941c5.172-5.064,11.667-7.539,19.627-7.539
			c7.539,0,13.734,2.475,18.489,7.539c4.856,5.061,7.225,11.263,7.225,18.697c0,1.548-0.101,2.993-0.201,4.34h-40.494
			c0.416,8.259,6.518,13.633,15.702,13.633c5.369,0,10.021-1.963,14.046-5.99l7.44,7.229c-5.889,6.195-13.124,9.296-21.9,9.296
			c-8.155,0-14.873-2.482-19.934-7.336c-5.061-4.854-7.638-11.358-7.638-19.522V226.918z M142.612,221.34
			c0-3.101-1.342-5.787-3.921-7.962c-2.583-2.268-5.583-3.403-9.193-3.403c-3.827,0-7.231,1.136-10.02,3.306
			c-2.79,2.169-4.344,4.853-4.646,8.06H142.612z"/>
		<path fill="#FFFFFF" d="M203.859,208.425v-7.541h12.405v52.058h-12.405v-7.539c-1.75,5.054-8.053,8.671-16.621,8.671
			c-7.334,0-13.53-2.582-18.594-7.743c-4.959-5.262-7.433-11.673-7.433-19.412c0-7.75,2.474-14.154,7.433-19.318
			c5.064-5.267,11.26-7.85,18.594-7.85C195.807,199.75,202.109,203.362,203.859,208.425z M200.142,238.272
			c3.1-2.994,4.653-6.821,4.653-11.354c0-4.549-1.553-8.375-4.653-11.365c-2.988-2.994-6.813-4.545-11.257-4.545
			c-4.436,0-8.052,1.551-11.042,4.545c-2.899,2.99-4.344,6.816-4.344,11.365c0,4.533,1.445,8.36,4.344,11.354
			c2.991,2.996,6.607,4.542,11.042,4.542C193.329,242.814,197.153,241.269,200.142,238.272z"/>
		<path fill="#FFFFFF" d="M273.892,208.219l-7.642,7.948c-3.616-3.817-8.059-5.68-13.221-5.68c-4.547,0-8.365,1.55-11.465,4.652
			c-2.997,3.1-4.541,7.019-4.541,11.666c0,4.646,1.544,8.579,4.541,11.676c3.1,3.096,6.918,4.65,11.465,4.65
			c5.162,0,9.604-1.863,13.221-5.687l7.642,7.957c-5.579,5.988-12.497,8.982-20.862,8.982c-7.954,0-14.671-2.579-20.139-7.843
			c-5.474-5.273-8.163-11.885-8.163-19.736c0-7.85,2.688-14.349,8.163-19.618c5.468-5.275,12.186-7.956,20.139-7.956
			C261.395,199.231,268.313,202.227,273.892,208.219z"/>
		<path fill="#FFFFFF" d="M281.436,252.941V180.95h12.286v27.165c2.382-4.961,8.063-8.265,15.19-8.265
			c11.977,0,19.005,7.953,19.005,20.865v32.226h-12.291v-30.469c0-7.13-3.823-11.567-10.432-11.567
			c-6.715,0-11.473,4.951-11.473,12.083v29.953H281.436z"/>
		<path fill="#FFFFFF" d="M335.454,252.941v-3.102l35.533-44.099h-31.504v-4.857h38.832v3.51L343,248.082h36.351v4.859H335.454z"/>
		<path fill="#FFFFFF" d="M385.032,227.019c0-8.063,2.373-14.669,7.232-19.73c4.858-5.166,10.947-7.743,18.186-7.743
			c6.907,0,12.693,2.478,17.241,7.538c4.639,5.057,6.911,11.156,6.911,18.487c0,1.032,0,1.861-0.097,2.578H390.09
			c0.11,6.305,2.07,11.366,5.883,15.292c3.837,3.921,8.787,5.886,14.676,5.886c6.506,0,12.183-2.48,17.043-7.537l3.407,3.303
			c-5.271,6.093-12.085,9.09-20.45,9.09c-7.536,0-13.627-2.482-18.488-7.433c-4.755-5.065-7.128-11.471-7.128-19.426V227.019z
			 M429.233,223.503c-0.095-5.264-1.96-9.808-5.572-13.528c-3.613-3.718-7.95-5.581-13.211-5.581
			c-5.492,0-10.133,1.863-14.056,5.581c-3.819,3.617-5.893,8.158-6.1,13.528H429.233z"/>
		<path fill="#FFFFFF" d="M470.036,200.164v5.366c-0.819-0.101-1.954-0.204-3.303-0.204c-5.474,0-9.604,1.861-12.498,5.473
			c-2.894,3.618-4.337,8.157-4.337,13.637v28.506h-5.163v-52.058h5.163v10.436c2.582-7.544,8.467-11.26,17.663-11.26
			C468.695,200.06,469.527,200.06,470.036,200.164z"/>
		<path fill="#FFFFFF" d="M472.519,226.918c0-7.75,2.583-14.264,7.855-19.52c5.267-5.276,11.772-7.854,19.517-7.854
			c7.738,0,14.15,2.577,19.412,7.854c5.273,5.256,7.957,11.77,7.957,19.52c0,7.739-2.684,14.243-7.957,19.518
			c-5.262,5.264-11.674,7.85-19.412,7.85c-7.744,0-14.25-2.586-19.517-7.85C475.102,241.161,472.519,234.657,472.519,226.918z
			 M477.682,226.918c0,6.4,2.072,11.771,6.303,16.104c4.229,4.236,9.604,6.408,15.906,6.408c6.302,0,11.566-2.172,15.804-6.408
			c4.229-4.334,6.403-9.704,6.403-16.104c0-6.416-2.174-11.778-6.403-16.013c-4.237-4.338-9.502-6.512-15.804-6.512
			c-6.303,0-11.677,2.174-15.906,6.512C479.754,215.14,477.682,220.502,477.682,226.918z"/>
	</g>
</g>
<g>
	<path fill="#00CBFF" d="M4.71,294.329v-15.748h1.175v15.748H4.71z"/>
	<path fill="#00CBFF" d="M19.332,294.329v-15.748h1.017l10.032,13.624v-13.624h1.175v15.748h-0.971l-10.078-13.715v13.715H19.332z"
		/>
	<path fill="#00CBFF" d="M48.101,294.329v-14.664h-4.564v-1.084h10.326v1.084h-4.587v14.664H48.101z"/>
	<path fill="#00CBFF" d="M65.842,294.329v-15.748h8.585v1.084h-7.411v5.784h6.981v1.107h-6.981v6.687h7.569v1.086H65.842z"/>
	<path fill="#00CBFF" d="M87.154,294.329v-15.748h1.175v14.662h6.779v1.086H87.154z"/>
	<path fill="#00CBFF" d="M107.29,294.329v-15.748h1.175v14.662h6.779v1.086H107.29z"/>
	<path fill="#00CBFF" d="M127.518,294.329v-15.748h1.175v15.748H127.518z"/>
	<path fill="#00CBFF" d="M154.272,280.026l-0.701,0.836c-1.242-0.972-2.688-1.445-4.337-1.445c-1.988,0-3.638,0.679-4.972,2.033
		c-1.333,1.333-1.988,3.005-1.988,5.016c0,2.012,0.655,3.707,1.966,5.062c1.333,1.333,2.982,2.012,4.994,2.012
		c1.897,0,3.479-0.589,4.767-1.741v-4.767h-5.174v-1.084h6.35v6.28c-1.627,1.605-3.616,2.396-5.942,2.396
		c-2.282,0-4.226-0.768-5.785-2.327s-2.35-3.502-2.35-5.83c0-2.327,0.791-4.247,2.35-5.807c1.559-1.559,3.502-2.328,5.785-2.328
		C151.177,278.331,152.849,278.896,154.272,280.026z"/>
	<path fill="#00CBFF" d="M167.835,294.329v-15.748h8.586v1.084h-7.411v5.784h6.981v1.107h-6.981v6.687h7.569v1.086H167.835z"/>
	<path fill="#00CBFF" d="M189.147,294.329v-15.748h1.017l10.033,13.624v-13.624h1.174v15.748h-0.971l-10.078-13.715v13.715H189.147z
		"/>
	<path fill="#00CBFF" d="M217.916,294.329v-14.664h-4.564v-1.084h10.326v1.084h-4.587v14.664H217.916z"/>
	<path fill="#00CBFF" d="M267.159,280.953l-0.791,0.745c-1.334-1.536-3.074-2.304-5.22-2.304c-2.011,0-3.66,0.678-4.994,2.033
		c-1.332,1.332-1.988,3.027-1.988,5.038c0,2.012,0.656,3.707,1.988,5.039c1.333,1.333,2.983,2.011,4.994,2.011
		c2.192,0,3.954-0.791,5.243-2.351l0.813,0.746c-1.468,1.718-3.638,2.69-6.056,2.69c-2.281,0-4.225-0.769-5.807-2.327
		c-1.559-1.56-2.35-3.48-2.35-5.809c0-2.327,0.791-4.247,2.35-5.807c1.582-1.559,3.525-2.351,5.807-2.351
		C263.588,278.309,265.6,279.19,267.159,280.953z"/>
	<path fill="#00CBFF" d="M284.472,287.687v6.643h-1.175v-6.643l-5.491-9.105h1.311l4.768,7.931l4.768-7.931h1.311L284.472,287.687z"
		/>
	<path fill="#00CBFF" d="M301.852,294.329v-15.748h4.7c1.152,0,2.102,0.36,2.871,1.106c0.766,0.745,1.15,1.672,1.15,2.802
		c0,1.559-0.791,2.824-2.146,3.276c1.988,0.271,3.275,1.966,3.275,4.067c0,1.288-0.429,2.351-1.311,3.208
		c-0.881,0.859-1.965,1.288-3.252,1.288H301.852z M303.025,285.357h3.436c1.694,0,2.938-1.196,2.938-2.823
		c0-1.648-1.221-2.869-2.914-2.869h-3.459V285.357z M303.025,293.243h4.046c0.972,0,1.808-0.315,2.463-0.969
		c0.654-0.656,0.994-1.47,0.994-2.441s-0.34-1.785-0.994-2.417c-0.655-0.657-1.515-0.973-2.554-0.973h-3.955V293.243z"/>
	<path fill="#00CBFF" d="M324.18,294.329v-15.748h8.587v1.084h-7.412v5.784h6.983v1.107h-6.983v6.687h7.571v1.086H324.18z"/>
	<path fill="#00CBFF" d="M345.492,294.329v-15.748h5.039c1.288,0,2.396,0.429,3.275,1.31c0.881,0.858,1.334,1.943,1.334,3.231
		c0,2.079-1.221,3.796-3.096,4.406l3.819,6.801h-1.289l-3.705-6.62c-0.091,0.022-0.249,0.022-0.476,0.022h-3.729v6.598H345.492z
		 M346.666,286.646h3.753c1.017,0,1.874-0.339,2.53-0.993c0.678-0.678,1.017-1.515,1.017-2.531c0-0.972-0.339-1.808-0.994-2.463
		c-0.654-0.655-1.491-0.994-2.487-0.994h-3.818V286.646z"/>
	<path fill="#00CBFF" d="M367.73,290.352c0.791,1.989,2.327,3.164,4.429,3.164c1.265,0,2.17-0.315,2.734-0.949
		c0.565-0.633,0.858-1.355,0.858-2.191c0-0.948-0.293-1.693-0.858-2.214c-0.564-0.521-1.536-1.085-2.916-1.695
		c-1.423-0.609-2.439-1.219-3.095-1.831c-0.655-0.609-0.972-1.469-0.972-2.575c0-1.084,0.384-1.987,1.152-2.688
		c0.768-0.701,1.74-1.063,2.893-1.063c1.854,0,3.186,0.77,4.021,2.306l-1.018,0.52c-0.609-1.151-1.626-1.739-3.004-1.739
		c-1.647,0-2.871,1.084-2.871,2.62c0,0.904,0.251,1.56,0.973,2.124c0.384,0.271,0.724,0.496,1.04,0.656l1.446,0.677
		c1.604,0.724,2.416,1.152,3.231,1.944c0.837,0.745,1.151,1.671,1.151,2.959c0,2.531-1.785,4.227-4.768,4.227
		c-2.53,0-4.52-1.312-5.443-3.774L367.73,290.352z"/>
	<path fill="#00CBFF" d="M389.268,294.329v-15.748h8.587v1.084h-7.412v5.784h6.983v1.107h-6.983v6.687h7.569v1.086H389.268z"/>
	<path fill="#00CBFF" d="M423.73,280.953l-0.791,0.745c-1.334-1.536-3.074-2.304-5.22-2.304c-2.011,0-3.661,0.678-4.993,2.033
		c-1.334,1.332-1.989,3.027-1.989,5.038c0,2.012,0.655,3.707,1.989,5.039c1.332,1.333,2.982,2.011,4.993,2.011
		c2.192,0,3.954-0.791,5.241-2.351l0.814,0.746c-1.47,1.718-3.638,2.69-6.056,2.69c-2.283,0-4.227-0.769-5.808-2.327
		c-1.559-1.56-2.351-3.48-2.351-5.809c0-2.327,0.792-4.247,2.351-5.807c1.581-1.559,3.524-2.351,5.808-2.351
		C420.158,278.309,422.169,279.19,423.73,280.953z"/>
	<path fill="#00CBFF" d="M435.755,278.581h1.177v10.416c0,2.892,1.694,4.519,4.427,4.519c2.735,0,4.43-1.627,4.43-4.519v-10.416
		h1.176v10.529c0,1.739-0.521,3.095-1.536,4.067c-1.018,0.948-2.373,1.424-4.069,1.424c-1.694,0-3.049-0.476-4.065-1.424
		c-1.019-0.973-1.538-2.328-1.538-4.067V278.581z"/>
	<path fill="#00CBFF" d="M460.21,294.329v-15.748h5.038c1.287,0,2.395,0.429,3.276,1.31c0.881,0.858,1.333,1.943,1.333,3.231
		c0,2.079-1.223,3.796-3.098,4.406l3.82,6.801h-1.289l-3.705-6.62c-0.09,0.022-0.248,0.022-0.474,0.022h-3.729v6.598H460.21z
		 M461.384,286.646h3.75c1.017,0,1.877-0.339,2.532-0.993c0.676-0.678,1.016-1.515,1.016-2.531c0-0.972-0.34-1.808-0.994-2.463
		c-0.655-0.655-1.491-0.994-2.484-0.994h-3.819V286.646z"/>
	<path fill="#00CBFF" d="M482.695,294.329v-15.748h1.175v15.748H482.695z"/>
	<path fill="#00CBFF" d="M500.482,294.329v-14.664h-4.565v-1.084h10.325v1.084h-4.586v14.664H500.482z"/>
	<path fill="#00CBFF" d="M523.396,287.687v6.643h-1.177v-6.643l-5.489-9.105h1.311l4.767,7.931l4.768-7.931h1.312L523.396,287.687z"
		/>
</g>
<g>
	<g>
		<g>
			<g>
				<path fill="#F5841F" d="M157.49,335.376c6.472,0,12.962,0,19.451,0c0.192,0,0.383-0.012,0.585,0
					c0.717,0.016,0.717,0.016,0.74,0.682c0,0.176,0,0.333,0,0.503c0,13.091,0,26.188,0,39.294c0,1.31,0.114,1.166-1.161,1.17
					c-5.924,0-11.836,0-17.771,0c-0.259,0-0.528,0.024-0.784,0c-0.371-0.029-0.538,0.151-0.522,0.538c0.014,0.262,0,0.51,0,0.778
					c0,5.86,0,11.716,0,17.57c0,0.21,0,0.406,0,0.596c-0.023,0.758-0.023,0.758-0.782,0.77c-2.862,0-5.72,0-8.591,0
					c-10.363,0-20.742,0-31.098,0c-1.368,0-1.212,0.063-1.212-1.244c0-13.062,0-26.13,0-39.188c0-1.335-0.115-1.242,1.212-1.242
					c5.914,0,11.843,0,17.769,0c0.265,0,0.523,0,0.791,0c0.325,0,0.495-0.13,0.49-0.477c-0.009-0.257,0.004-0.529,0.004-0.783
					c0-5.964-0.004-11.911,0-17.871c0-1.229-0.119-1.09,1.12-1.09C144.315,335.376,150.914,335.376,157.49,335.376z
					 M157.448,340.722c-4.774,0-9.557,0-14.321,0c-0.236,0-0.462,0.011-0.69,0c-0.33-0.015-0.485,0.149-0.476,0.473
					c0.019,0.188,0,0.395,0,0.602c0,4.247,0,8.477,0,12.73c0,0.197,0.014,0.394,0.005,0.595c-0.005,0.325,0.163,0.475,0.479,0.475
					c0.269,0,0.532,0,0.792,0c4.509,0,9.017,0,13.526,0c0.238,0,0.466,0.008,0.688,0c0.369-0.018,0.561,0.124,0.542,0.521
					c-0.014,0.212,0,0.463,0,0.675c0,4.546,0,9.085,0,13.634c0,0.231,0.018,0.455,0,0.685c-0.014,0.435,0.21,0.595,0.608,0.56
					c0.165-0.007,0.331,0,0.489,0c4.249,0,8.496,0,12.739,0c0.233,0,0.461,0,0.693-0.007c0.227-0.009,0.366-0.131,0.377-0.357
					c0.013-0.195,0.013-0.396,0.013-0.593c0-9.711,0-19.425,0-29.129c0-0.85-0.008-0.867-0.854-0.875c-0.181,0-0.339,0-0.494,0
					C166.856,340.722,162.157,340.722,157.448,340.722z M137.192,391.883c4.736,0,9.478,0,14.215,0c0.268,0,0.535-0.021,0.789,0
					c0.281,0,0.446-0.104,0.446-0.393c-0.016-0.209,0-0.4,0-0.598c0-4.276,0-8.562,0-12.834c0-0.189-0.016-0.405,0-0.597
					c0-0.284-0.114-0.43-0.406-0.43c-0.267,0.011-0.536,0-0.792,0c-4.539,0-9.086,0-13.608,0c-1.376-0.006-1.223,0.144-1.223-1.209
					c-0.005-4.669,0-9.35-0.005-14.019c0-0.787-0.016-0.793-0.744-0.812c-4.44,0-8.889,0-13.329,0
					c-0.758,0.019-0.758,0.024-0.782,0.757c0,0.133,0,0.261,0,0.397c0,9.546,0,19.086,0,28.634c0,0.191,0.014,0.391,0,0.583
					c-0.031,0.395,0.172,0.544,0.531,0.516c0.229-0.023,0.458,0,0.695,0C127.713,391.883,132.455,391.883,137.192,391.883z
					 M152.638,366.298c0-1.514,0-3.026,0-4.548c-0.014-0.721-0.023-0.741-0.684-0.741c-3.116-0.011-6.239,0-9.37-0.011
					c-0.445-0.007-0.633,0.137-0.628,0.626c0.019,3.154,0.019,6.305,0,9.46c0,0.483,0.194,0.607,0.641,0.601
					c3.121-0.007,6.241-0.01,9.364,0.007c0.51,0.004,0.69-0.159,0.677-0.673C152.619,369.445,152.638,367.859,152.638,366.298z"/>
				<path fill="#F5841F" d="M221.613,371.049c0.623,0.743,1.183,1.394,1.702,2.063c1.957,2.565,3.416,5.394,4.688,8.337
					c2.1,4.835,3.658,9.846,4.884,14.972c0.185,0.851,0.171,0.857-0.64,0.857c-2.345,0.007-4.676,0.007-7.01,0
					c-0.802,0-0.802-0.007-1.008-0.832c-1.221-4.808-2.755-9.483-4.886-13.953c-1.154-2.411-2.494-4.716-4.241-6.756
					c-0.65-0.779-1.391-1.484-2.204-2.098c-1.159-0.888-2.392-1.379-3.915-1.329c-3.479,0.093-6.973,0.03-10.464,0.03
					c-0.949,0-0.964,0.009-0.964,0.986c0,7.581,0.007,15.149,0,22.707c0,1.325,0.167,1.232-1.197,1.24c-1.936,0-3.876,0-5.822,0
					c-1.562-0.008-1.335,0.101-1.335-1.29c-0.009-14.129,0-28.243,0-42.376c0-5.719,0-11.444,0-17.169
					c0-1.164-0.098-1.089,1.041-1.089c7.212,0.01,14.43,0,21.631,0.03c2.435,0.007,4.866,0.213,7.236,0.82
					c5.179,1.313,8.91,4.424,10.819,9.373c2.778,7.255,2.007,14.219-2.409,20.663C226.058,368.378,224.054,369.907,221.613,371.049z
					 M197.558,353.86c0,3.306,0,6.592,0,9.874c0,0.044,0,0.07,0,0.107c0.005,0.937,0.005,0.942,0.988,0.942
					c1.778,0,3.553,0.027,5.317,0c3.194-0.039,6.39,0.092,9.584-0.16c4.577-0.377,7.87-3.135,8.867-7.625
					c0.434-1.858,0.471-3.709,0.201-5.597c-0.589-4.186-3.329-7.197-7.444-8.062c-1.532-0.309-3.114-0.425-4.705-0.437
					c-3.91-0.009-7.821-0.009-11.735-0.009c-0.194,0-0.396,0.009-0.601,0.009c-0.325-0.009-0.466,0.175-0.466,0.49
					c0,0.228-0.007,0.461-0.007,0.686C197.558,347.338,197.558,350.604,197.558,353.86z"/>
				<path fill="#F5841F" d="M270.183,385.365c0.284,0.118,0.353,0.355,0.485,0.543c0.898,1.607,1.81,3.22,2.711,4.822
					c0.412,0.753,0.412,0.76-0.251,1.273c-3.187,2.53-6.794,4.221-10.772,5.076c-5.355,1.173-10.608,0.797-15.645-1.394
					c-5.782-2.495-9.785-6.767-11.825-12.674c-2.354-6.834-1.968-13.638,1.244-20.124c2.883-5.862,7.71-9.385,14.085-10.716
					c3.715-0.777,7.444-0.705,11.103,0.385c4.828,1.466,8.372,4.457,10.677,8.93c2.257,4.379,2.803,9.058,2.257,13.909
					c-0.039,0.371-0.215,0.503-0.57,0.485c-0.263-0.009-0.53,0-0.795,0c-9.831,0-19.671,0-29.511,0
					c-1.258,0-1.235-0.123-1.116,1.167c0.689,7.175,5.355,11.908,11.837,13.046c5.716,0.986,10.71-0.731,15.268-4.086
					C269.652,385.796,269.936,385.563,270.183,385.365z M242.51,369.554c0.32,0,0.592,0,0.849,0c7.167,0,14.337,0,21.534,0
					c0.086,0,0.183-0.012,0.296,0c0.449,0.048,0.639-0.108,0.614-0.606c-0.042-0.597-0.115-1.166-0.234-1.763
					c-0.53-2.666-1.714-4.954-3.923-6.63c-2.623-2-5.645-2.462-8.788-2.02C247.273,359.321,243.109,363.785,242.51,369.554z"/>
				<path fill="#F5841F" d="M326.261,393.405c-0.941,0.503-1.747,0.95-2.579,1.373c-2.384,1.213-4.858,2.358-7.554,2.683
					c-6.238,0.808-11.701-0.75-15.903-5.629c-1.759-2.014-2.577-4.46-2.706-7.153c-0.077-2.188,0.146-4.345,0.875-6.415
					c1.118-3.16,3.446-5.238,6.227-6.867c2.25-1.318,4.715-1.955,7.31-2.242c3.856-0.434,7.741-0.188,11.629-0.248
					c0.625-0.017,1.242-0.007,1.861,0c0.355,0,0.559-0.127,0.557-0.51c0-1.243,0.082-2.513-0.273-3.729
					c-0.857-2.913-3.48-5.041-6.521-5.419c-3.937-0.459-7.669,0.318-11.304,1.701c-1.143,0.435-2.227,0.966-3.342,1.468
					c-0.648,0.283-0.648,0.304-0.984-0.278c-0.937-1.66-1.861-3.334-2.801-4.994c-0.237-0.382-0.237-0.587,0.196-0.851
					c5.818-3.523,12.076-5.113,18.867-4.477c3.222,0.305,6.224,1.278,8.894,3.18c2.901,2.034,4.439,4.869,4.972,8.3
					c0.271,1.625,0.354,3.27,0.354,4.913c0.02,8.56,0.025,17.127,0.025,25.681c0,0.908-0.029,1.832-0.006,2.746
					c0.006,0.475-0.142,0.634-0.632,0.634c-2.132-0.027-4.272-0.018-6.418-0.027c-0.737-0.009-0.739-0.029-0.755-0.782
					C326.252,395.483,326.261,394.519,326.261,393.405z M325.979,380.456c0-1.367,0-2.755,0.008-4.134
					c0.01-0.477-0.163-0.638-0.63-0.632c-1.202,0.018-2.434-0.01-3.647,0.008c-2.567,0.039-5.129-0.113-7.69,0.15
					c-1.985,0.209-3.892,0.666-5.572,1.777c-3.36,2.196-4.135,6.406-1.782,9.652c1.333,1.836,3.222,2.709,5.397,2.953
					c5.197,0.608,9.708-0.969,13.444-4.7c0.368-0.35,0.49-0.729,0.49-1.229C325.979,383.035,325.979,381.738,325.979,380.456z"/>
				<path fill="#F5841F" d="M471.978,353.45c0.274-0.188,0.505-0.14,0.726-0.14c2.369,0,4.731,0.028,7.098-0.016
					c0.613-0.005,0.873,0.233,1.07,0.746c2.089,4.94,4.187,9.871,6.266,14.813c2.264,5.325,4.521,10.653,6.764,15.968
					c0.061,0.154,0.144,0.297,0.229,0.489c0.38-0.223,0.399-0.62,0.5-0.922c3.156-8.755,6.285-17.517,9.428-26.258
					c0.48-1.393,0.981-2.792,1.486-4.185c0.11-0.356,0.219-0.645,0.71-0.64c2.567,0.018,5.14,0.018,7.7,0.028
					c0.067,0,0.114,0.048,0.184,0.072c0.112,0.34-0.103,0.632-0.209,0.924c-6.38,17.293-12.806,34.578-19.185,51.877
					c-2.181,5.88-6.522,8.676-12.556,9.182c-0.792,0.065-1.574,0.065-2.378,0.097c-0.431,0.004-0.627-0.189-0.619-0.667
					c0.006-2.035,0.006-4.067,0-6.116c-0.008-0.487,0.227-0.616,0.667-0.597c0.79,0.035,1.578,0.016,2.354-0.123
					c2.72-0.492,4.579-2.08,5.59-4.616c0.814-2.049,1.496-4.147,2.265-6.194c0.173-0.464,0.022-0.83-0.149-1.234
					c-2.143-5.055-4.277-10.107-6.408-15.171c-3.731-8.806-7.459-17.606-11.176-26.432
					C472.195,354.045,472.092,353.747,471.978,353.45z"/>
				<path fill="#F5841F" d="M383.483,353.311c1.132,0,2.205,0,3.304,0c1.481,0,2.949,0,4.445,0c0.804,0,0.808,0.012,1.108,0.785
					c1.979,5.091,3.95,10.18,5.921,15.249c1.977,5.055,3.935,10.125,5.91,15.17c0.097,0.268,0.151,0.549,0.39,0.788
					c0.311-0.265,0.347-0.64,0.474-0.972c3.89-10.005,7.787-20.026,11.685-30.038c0.419-1.073,0.149-0.973,1.369-0.98
					c2.21,0,4.428,0,6.629,0.01c0.318,0,0.644-0.089,1.013,0.141c-0.213,0.576-0.424,1.159-0.654,1.732
					c-5.399,13.658-10.777,27.331-16.161,40.996c-0.077,0.16-0.144,0.292-0.185,0.449c-0.122,0.462-0.411,0.6-0.864,0.6
					c-2.198-0.029-4.407-0.034-6.629,0c-0.536,0.011-0.804-0.19-0.989-0.693c-1.096-2.856-2.227-5.69-3.325-8.55
					c-4.379-11.167-8.757-22.334-13.12-33.498C383.665,354.162,383.463,353.846,383.483,353.311z"/>
				<path fill="#F5841F" d="M342.419,371.635c0-3.257,0-6.521,0-9.776c0-0.229,0-0.465,0-0.685c-0.022-1.048-0.022-1.048-1.024-1.05
					c-0.828,0-1.636-0.026-2.458,0.002c-0.504,0.016-0.688-0.154-0.688-0.681c0.027-1.818,0.025-3.624,0.025-5.43
					c0-0.66,0.012-0.677,0.726-0.693c0.823,0,1.641,0.007,2.482,0c0.925,0,0.937,0,0.937-0.995c0-2.671,0-5.338,0-8.005
					c0-1.471-0.017-2.958,0-4.442c0.006-0.708,0.026-0.731,0.682-0.731c2.354-0.014,4.68-0.014,7.02,0
					c0.741,0,0.754,0.023,0.754,0.777c0,3.912,0,7.842,0,11.761c0,0.286,0,0.587,0,0.881c0.023,0.734,0.023,0.745,0.792,0.745
					c3.218,0,6.447,0,9.68,0c0.919,0,0.919,0.017,0.923,0.916c0,1.68,0,3.356,0,5.037c-0.004,0.846-0.016,0.858-0.894,0.858
					c-3.104,0-6.188,0-9.29,0c-0.219,0-0.463,0-0.686,0c-0.383-0.013-0.535,0.16-0.523,0.528c0,0.209,0,0.414,0,0.603
					c0,6.153,0,12.312,0,18.455c0,1.204,0.095,2.368,0.373,3.517c0.936,3.975,3.791,6.112,7.741,6.459
					c0.884,0.081,1.761,0.084,2.641-0.022c0.49-0.048,0.649,0.144,0.644,0.612c-0.006,2.064-0.006,4.143,0,6.217
					c0,0.466-0.197,0.649-0.644,0.672c-3.512,0.195-6.969,0.036-10.28-1.28c-4.469-1.778-7.203-5.049-8.334-9.695
					c-0.422-1.717-0.596-3.496-0.596-5.271C342.419,377.833,342.419,374.728,342.419,371.635z"/>
				<path fill="#F5841F" d="M470.255,360.028c-0.553,0.193-0.977,0.09-1.396,0.09c-2.964,0.008-5.935,0.006-8.896,0.006
					c-0.884,0-0.896,0.002-0.896,0.942c0,6.374,0,12.766,0,19.132c0,1.258,0.153,2.503,0.505,3.704
					c0.97,3.076,3.093,4.885,6.211,5.584c1.284,0.283,2.608,0.273,3.912,0.203c0.641-0.04,0.679-0.02,0.693,0.612
					c0.004,2.046-0.015,4.083,0.004,6.128c0.012,0.495-0.143,0.716-0.664,0.745c-3.599,0.192-7.156,0.01-10.543-1.428
					c-4.613-1.935-7.189-5.472-8.182-10.27c-0.293-1.465-0.406-2.932-0.406-4.415c0.01-6.452,0-12.901,0-19.352
					c0-0.193,0-0.392,0-0.603c-0.018-0.927-0.018-0.942-0.98-0.973c-0.834-0.022-1.659-0.026-2.481-0.012
					c-0.489,0.005-0.703-0.104-0.689-0.662c0.015-1.845,0.015-3.68,0-5.52c-0.01-0.471,0.142-0.649,0.617-0.636
					c0.891,0.03,1.782,0.014,2.66,0c0.856,0,0.872-0.014,0.872-0.876c0-3.986,0-7.965,0-11.959c0.006-1.566-0.213-1.323,1.38-1.331
					c2.064-0.009,4.141,0,6.215,0c0.854,0,0.871,0.008,0.871,0.868c0,3.947,0,7.895,0,11.852c0,0.198,0,0.392,0,0.596
					c0.01,0.851,0.01,0.851,0.859,0.851c2.254,0,4.49,0.032,6.727,0c0.612-0.014,0.911,0.187,1.155,0.773
					c0.719,1.792,1.505,3.576,2.264,5.363C470.148,359.623,470.175,359.797,470.255,360.028z"/>
				<path fill="#F5841F" d="M279.58,361.333c0-8.302,0-16.586,0.011-24.871c0-1.181-0.116-1.077,1.054-1.077
					c2.227,0,4.459-0.007,6.703,0c0.696,0,0.696,0.019,0.709,0.711c0.009,0.223,0.009,0.455,0.009,0.681c0,15.502,0,30.998,0,46.487
					c0,0.946,0.018,1.893,0.21,2.855c0.494,2.438,1.806,3.551,4.311,3.57c0.056,0,0.114,0,0.184,0c1.418,0,1.418,0,1.418,1.469
					c0,1.73,0,3.475,0,5.231c-0.01,0.744-0.022,0.752-0.771,0.793c-1.936,0.092-3.882,0.15-5.799-0.258
					c-4.205-0.925-6.676-3.551-7.609-7.717c-0.297-1.354-0.43-2.731-0.43-4.113C279.591,377.178,279.58,369.247,279.58,361.333z"/>
				<path fill="#F5841F" d="M377.765,375.271c0,6.869,0,13.751,0,20.624c0,0.224-0.02,0.462,0,0.677
					c0.043,0.454-0.101,0.658-0.6,0.654c-2.435-0.014-4.862-0.014-7.306,0c-0.429,0-0.598-0.184-0.558-0.591
					c0.005-0.191,0-0.411,0-0.587c0-13.857,0-27.694,0-41.546c0-1.275-0.136-1.196,1.147-1.196c2.141,0,4.281,0,6.419,0
					c0.887,0,0.896,0.018,0.896,0.938C377.765,361.255,377.765,368.267,377.765,375.271z"/>
				<path fill="#F5841F" d="M439.793,375.379c0,6.841,0,13.688,0,20.526c0,0.223-0.017,0.46,0,0.681
					c0.043,0.447-0.11,0.654-0.618,0.645c-2.389-0.02-4.782-0.02-7.203,0c-0.484,0.012-0.626-0.213-0.604-0.653
					c0.028-0.194,0.014-0.402,0.014-0.593c0-13.813-0.014-27.624,0.015-41.44c0-1.369-0.146-1.231,1.189-1.237
					c2.007,0,4.01,0,6.021,0c1.307,0.016,1.172-0.132,1.187,1.15C439.793,361.425,439.793,368.395,439.793,375.379z"/>
				<path fill="#F5841F" d="M430.268,342.852c0-2.969,2.363-5.316,5.327-5.314c2.979,0.01,5.325,2.368,5.335,5.347
					c0.018,2.977-2.327,5.32-5.305,5.348C432.516,348.272,430.125,345.627,430.268,342.852z"/>
				<path fill="#F5841F" d="M368.222,342.874c0-2.984,2.365-5.339,5.332-5.339c2.958,0.01,5.328,2.389,5.348,5.339
					c0.013,2.995-2.384,5.37-5.421,5.362C370.519,348.218,368.222,345.884,368.222,342.874z"/>
				<path fill="#F5841F" d="M518.521,353.311c0-2.664,2.015-4.75,4.618-4.764c2.641-0.014,4.692,2.098,4.685,4.794
					c-0.012,2.633-2.083,4.736-4.66,4.736C520.578,358.071,518.521,355.976,518.521,353.311z M523.183,357.118
					c2.064-0.012,3.658-1.672,3.65-3.823c-0.014-2.142-1.632-3.851-3.656-3.857c-2.035,0-3.646,1.716-3.646,3.875
					C519.531,355.477,521.091,357.125,523.183,357.118z"/>
				<path fill="#F5841F" d="M525.079,355.635c-0.866,0.119-0.866,0.119-1.23-0.559c-0.151-0.319-0.313-0.665-0.49-0.98
					c-0.124-0.235-0.368-0.246-0.617-0.18c-0.26,0.038-0.232,0.26-0.236,0.454c-0.021,0.291-0.021,0.588,0,0.878
					c0.004,0.33-0.106,0.483-0.458,0.479c-0.294,0-0.505-0.045-0.505-0.419c0-1.329,0-2.676,0-4.031c0-0.32,0.131-0.472,0.462-0.463
					c0.515,0,1.058-0.031,1.57,0c0.594,0.042,1.075,0.295,1.316,0.872c0.257,0.604,0.213,1.201-0.292,1.617
					c-0.427,0.367-0.309,0.636-0.106,1.019C524.713,354.759,525.025,355.131,525.079,355.635z M522.505,352.329
					c-0.014,0.804,0.027,0.834,0.606,0.821c0.572-0.018,0.909-0.301,0.941-0.78c0.021-0.508-0.359-0.777-0.991-0.819
					C522.412,351.52,522.515,351.946,522.505,352.329z"/>
			</g>
		</g>
	</g>
</g>
<g>
	<path fill="#FFFFFF" d="M5.966,381.659l0.652-3.355l32.159-46.143h5.501l-31.322,44.93h28.989l3.078-15.286h4.939l-7.18,35.327
		h-4.938l3.26-15.473H5.966L5.966,381.659z"/>
</g>
</svg>
