<?xml version="1.0" encoding="utf-8"?>
<!-- Generator: Adobe Illustrator 16.0.0, SVG Export Plug-In . SVG Version: 6.00 Build 0)  -->
<!DOCTYPE svg PUBLIC "-//W3C//DTD SVG 1.1//EN" "http://www.w3.org/Graphics/SVG/1.1/DTD/svg11.dtd">
<svg version="1.1" id="Layer_1" xmlns="http://www.w3.org/2000/svg" xmlns:xlink="http://www.w3.org/1999/xlink" x="0px" y="0px"
	 width="585px" height="294px" viewBox="0 0 585 294" enable-background="new 0 0 585 294" xml:space="preserve">
<g id="Layer_1_1_">
</g>
<g>
	
		<image overflow="visible" enable-background="new    " width="2479" height="550" xlink:href="A2C74EDB.png"  transform="matrix(0.2394 0 0 0.2394 0.0688 -3.6416)">
	</image>
	<g>
		<g>
			<path fill="#FFFFFF" d="M553.904,35.457v1.415h-2.74v7.133h-1.689v-7.133h-2.705v-1.415H553.904z M563.143,44.005l-0.313-5.025
				c-0.023-0.66-0.023-1.479-0.062-2.388h-0.09c-0.229,0.749-0.508,1.758-0.731,2.542l-1.539,4.75h-1.761l-1.53-4.871
				c-0.166-0.631-0.414-1.672-0.605-2.421h-0.088c0,0.783-0.037,1.603-0.065,2.388l-0.314,5.025h-1.637l0.625-8.548h2.549
				l1.479,4.183c0.22,0.66,0.353,1.293,0.57,2.168h0.023c0.225-0.759,0.416-1.508,0.596-2.104l1.479-4.246h2.455l0.656,8.548
				L563.143,44.005L563.143,44.005z"/>
			<g>
				<path fill="#FFFFFF" d="M28.612,97.285V25.584h12.342v27.362c1.748-5.04,8.027-8.639,16.564-8.639
					c7.301,0,13.477,2.572,18.41,7.818c5.041,5.142,7.514,11.521,7.514,19.239c0,7.706-2.473,14.091-7.514,19.335
					c-4.934,5.141-11.109,7.711-18.41,7.711c-8.537,0-14.816-3.602-16.564-8.637v7.511L28.612,97.285L28.612,97.285z M66.772,82.675
					c2.98-2.983,4.422-6.793,4.422-11.31c0-4.528-1.441-8.341-4.422-11.32c-2.879-2.981-6.48-4.525-10.898-4.525
					c-4.422,0-8.234,1.544-11.313,4.525c-2.992,2.979-4.527,6.792-4.527,11.32c0,4.517,1.535,8.326,4.527,11.31
					c3.078,2.982,6.891,4.522,11.313,4.522C60.292,87.197,63.893,85.657,66.772,82.675z"/>
				<path fill="#FFFFFF" d="M91.977,97.285V45.437h12.246v7.716c2.465-5.454,8.123-8.743,15.434-8.743
					c1.436,0,2.674,0.107,3.695,0.312v11.925c-1.541-0.303-3.285-0.514-5.145-0.514c-8.533,0-13.984,5.353-13.984,13.892v27.262
					H91.977V97.285z"/>
				<path fill="#FFFFFF" d="M126.446,71.365c0-8.235,2.566-14.821,7.605-19.858c5.152-5.044,11.621-7.51,19.551-7.51
					c7.508,0,13.678,2.466,18.412,7.51c4.837,5.037,7.195,11.215,7.195,18.621c0,1.54-0.098,2.979-0.199,4.32h-40.328
					c0.412,8.227,6.49,13.579,15.635,13.579c5.35,0,9.982-1.957,13.992-5.968l7.408,7.199c-5.863,6.174-13.07,9.258-21.811,9.258
					c-8.123,0-14.813-2.472-19.855-7.305c-5.039-4.835-7.605-11.314-7.605-19.443V71.365L126.446,71.365z M166.663,65.81
					c0-3.088-1.338-5.765-3.906-7.928c-2.572-2.263-5.559-3.391-9.154-3.391c-3.813,0-7.203,1.128-9.98,3.291
					c-2.779,2.162-4.326,4.833-4.627,8.027L166.663,65.81L166.663,65.81z"/>
				<path fill="#FFFFFF" d="M227.663,52.946v-7.51h12.354v51.849h-12.354v-7.51c-1.744,5.033-8.02,8.636-16.557,8.636
					c-7.305,0-13.473-2.57-18.518-7.711c-4.939-5.244-7.402-11.629-7.402-19.335c0-7.718,2.463-14.098,7.402-19.239
					c5.045-5.246,11.213-7.818,18.518-7.818C219.644,44.308,225.919,47.906,227.663,52.946z M223.96,82.675
					c3.088-2.983,4.633-6.793,4.633-11.31c0-4.528-1.545-8.341-4.633-11.32c-2.977-2.981-6.785-4.525-11.213-4.525
					c-4.418,0-8.02,1.544-10.998,4.525c-2.885,2.979-4.326,6.792-4.326,11.32c0,4.517,1.441,8.326,4.326,11.31
					c2.979,2.982,6.58,4.522,10.998,4.522C217.175,87.197,220.983,85.657,223.96,82.675z"/>
				<path fill="#FFFFFF" d="M297.411,52.741l-7.609,7.918c-3.604-3.803-8.027-5.655-13.17-5.655c-4.527,0-8.33,1.54-11.42,4.63
					c-2.982,3.088-4.52,6.992-4.52,11.621c0,4.627,1.537,8.541,4.52,11.626c3.09,3.085,6.893,4.633,11.42,4.633
					c5.143,0,9.566-1.855,13.17-5.663l7.609,7.924c-5.555,5.965-12.447,8.947-20.779,8.947c-7.922,0-14.611-2.568-20.057-7.813
					c-5.451-5.253-8.129-11.839-8.129-19.655c0-7.817,2.678-14.293,8.129-19.541c5.445-5.251,12.135-7.923,20.057-7.923
					C284.964,43.791,291.856,46.774,297.411,52.741z"/>
				<path fill="#FFFFFF" d="M304.925,97.285V25.584h12.235v27.055c2.373-4.94,8.029-8.229,15.127-8.229
					c11.93,0,18.93,7.919,18.93,20.778v32.098h-12.242V66.938c0-7.101-3.809-11.521-10.391-11.521
					c-6.688,0-11.424,4.933-11.424,12.032v29.835L304.925,97.285L304.925,97.285z"/>
				<path fill="#FFFFFF" d="M358.723,97.285v-3.09l35.389-43.921h-31.377v-4.838h38.675v3.496l-35.17,43.513h36.203v4.84H358.723z"
					/>
				<path fill="#FFFFFF" d="M408.1,71.466c0-8.028,2.363-14.609,7.203-19.651c4.838-5.146,10.904-7.712,18.111-7.712
					c6.881,0,12.643,2.469,17.172,7.507c4.619,5.036,6.883,11.112,6.883,18.414c0,1.029,0,1.854-0.094,2.569h-44.236
					c0.109,6.277,2.062,11.318,5.859,15.229c3.818,3.904,8.75,5.861,14.615,5.861c6.479,0,12.133-2.472,16.973-7.508l3.395,3.29
					c-5.25,6.066-12.036,9.052-20.366,9.052c-7.506,0-13.574-2.473-18.414-7.4c-4.736-5.047-7.101-11.425-7.101-19.348V71.466
					L408.1,71.466z M452.123,67.965c-0.096-5.243-1.951-9.771-5.549-13.474c-3.601-3.703-7.92-5.559-13.16-5.559
					c-5.469,0-10.092,1.855-13.996,5.559c-3.805,3.602-5.869,8.124-6.076,13.474H452.123z"/>
				<path fill="#FFFFFF" d="M492.762,44.721v5.344c-0.817-0.101-1.946-0.202-3.293-0.202c-5.447,0-9.563,1.852-12.442,5.451
					c-2.884,3.602-4.322,8.124-4.322,13.58v28.392h-5.142V45.437h5.142v10.395c2.572-7.514,8.436-11.215,17.592-11.215
					C491.424,44.616,492.252,44.616,492.762,44.721z"/>
				<path fill="#FFFFFF" d="M495.232,71.365c0-7.718,2.571-14.206,7.821-19.44c5.246-5.256,11.728-7.822,19.439-7.822
					c7.709,0,14.092,2.566,19.334,7.822c5.252,5.234,7.926,11.723,7.926,19.44c0,7.706-2.674,14.187-7.926,19.438
					c-5.242,5.241-11.625,7.817-19.334,7.817c-7.713,0-14.193-2.576-19.439-7.817C497.805,85.552,495.232,79.071,495.232,71.365z
					 M500.373,71.365c0,6.374,2.064,11.722,6.279,16.037c4.215,4.224,9.563,6.384,15.842,6.384c6.277,0,11.52-2.16,15.738-6.384
					c4.213-4.315,6.379-9.663,6.379-16.037c0-6.389-2.166-11.731-6.379-15.947c-4.22-4.319-9.462-6.485-15.738-6.485
					c-6.277,0-11.627,2.166-15.842,6.485C502.438,59.634,500.373,64.977,500.373,71.365z"/>
			</g>
		</g>
	</g>
</g>
<g>
	
		<text transform="matrix(1 0 0 1 27.0688 138.5049)" fill="#76B2E1" font-family="'HurmeGeometricSans3-Light'" font-size="22.5084" letter-spacing="8">INTELLIGENT </text>
	
		<text transform="matrix(1 0 0 1 275.4468 138.5049)" fill="#70CBEE" font-family="'HurmeGeometricSans3-Light'" font-size="22.5084" letter-spacing="8">CYBERSECURITY</text>
</g>
<g>
	<g>
		<g>
			<g>
				<path fill="#FF8500" d="M170.051,178.637c6.836,0,13.689,0,20.536,0c0.199,0,0.403-0.009,0.613,0
					c0.761,0.02,0.761,0.02,0.783,0.721c0,0.186,0,0.352,0,0.528c0,13.819,0,27.646,0,41.478c0,1.384,0.126,1.234-1.219,1.238
					c-6.254,0-12.497,0-18.759,0c-0.277,0-0.558,0.021-0.831,0c-0.392-0.029-0.57,0.155-0.552,0.565c0.01,0.276,0,0.54,0,0.82
					c0,6.188,0,12.368,0,18.548c0,0.219,0,0.422,0,0.628c-0.025,0.799-0.025,0.799-0.824,0.808c-3.02,0-6.043,0-9.067,0
					c-10.944,0-21.896,0-32.829,0c-1.438,0-1.274,0.072-1.274-1.311c0-13.788,0-27.581,0-41.368c0-1.41-0.122-1.311,1.274-1.311
					c6.248,0,12.503,0,18.761,0c0.274,0,0.552,0,0.828,0c0.343,0,0.525-0.136,0.521-0.501c-0.006-0.273,0.004-0.56,0.004-0.826
					c0-6.297-0.004-12.573,0-18.864c0-1.294-0.126-1.153,1.186-1.153C156.15,178.637,163.11,178.637,170.051,178.637z
					 M170.006,184.279c-5.037,0-10.082,0-15.112,0c-0.248,0-0.492,0.01-0.732,0c-0.349-0.013-0.508,0.154-0.5,0.497
					c0.019,0.197,0,0.417,0,0.635c0,4.481,0,8.946,0,13.437c0,0.21,0.011,0.415,0.004,0.631c-0.004,0.341,0.169,0.498,0.507,0.498
					c0.285,0,0.558,0,0.834,0c4.762,0,9.518,0,14.276,0c0.25,0,0.493,0.013,0.727,0c0.388-0.017,0.591,0.135,0.572,0.552
					c-0.019,0.224,0,0.488,0,0.715c0,4.799,0,9.585,0,14.389c0,0.243,0.017,0.479,0,0.722c-0.019,0.46,0.22,0.625,0.637,0.591
					c0.174-0.008,0.352,0,0.521,0c4.483,0,8.968,0,13.447,0c0.244,0,0.483,0,0.727-0.008c0.242-0.01,0.388-0.138,0.401-0.376
					c0.019-0.207,0.019-0.418,0.019-0.628c0-10.248,0-20.502,0-30.746c0-0.897-0.013-0.91-0.907-0.92c-0.184,0-0.357,0-0.521,0
					C179.937,184.279,174.98,184.279,170.006,184.279z M148.627,238.278c5.002,0,10.006,0,15.007,0c0.281,0,0.566-0.017,0.831,0
					c0.298,0,0.467-0.105,0.467-0.412c-0.011-0.219,0-0.423,0-0.631c0-4.514,0-9.034,0-13.547c0-0.2-0.011-0.424,0-0.631
					c0-0.297-0.116-0.452-0.421-0.452c-0.286,0.012-0.566,0-0.839,0c-4.791,0-9.588,0-14.363,0c-1.45-0.004-1.291,0.151-1.291-1.275
					c-0.004-4.932,0-9.872-0.004-14.795c0-0.832-0.014-0.84-0.783-0.86c-4.686,0-9.381,0-14.067,0
					c-0.801,0.021-0.801,0.028-0.824,0.798c0,0.143,0,0.278,0,0.423c0,10.072,0,20.142,0,30.221c0,0.206,0.014,0.413,0,0.618
					c-0.029,0.413,0.177,0.572,0.562,0.543c0.239-0.022,0.479,0,0.727,0C138.623,238.278,143.628,238.278,148.627,238.278z
					 M164.932,211.271c0-1.596,0-3.193,0-4.798c-0.011-0.757-0.019-0.779-0.721-0.779c-3.289-0.013-6.586,0-9.884-0.013
					c-0.472-0.008-0.669,0.145-0.665,0.662c0.019,3.327,0.019,6.652,0,9.982c0,0.508,0.207,0.643,0.676,0.638
					c3.297-0.011,6.59-0.015,9.883,0.005c0.542,0.004,0.729-0.169,0.717-0.711C164.913,214.596,164.932,212.925,164.932,211.271z"/>
				<path fill="#FF8500" d="M237.738,216.289c0.657,0.787,1.247,1.472,1.794,2.18c2.067,2.704,3.606,5.69,4.952,8.799
					c2.214,5.104,3.861,10.396,5.152,15.802c0.199,0.895,0.18,0.903-0.669,0.903c-2.477,0.008-4.938,0.008-7.402,0
					c-0.851,0-0.851-0.009-1.066-0.882c-1.29-5.068-2.909-10.009-5.155-14.725c-1.217-2.545-2.63-4.978-4.48-7.128
					c-0.684-0.823-1.463-1.567-2.32-2.215c-1.227-0.938-2.524-1.456-4.13-1.404c-3.673,0.098-7.363,0.033-11.046,0.033
					c-1.002,0-1.017,0.009-1.017,1.041c0,8,0.004,15.987,0,23.967c0,1.397,0.174,1.304-1.265,1.311c-2.043,0-4.092,0-6.146,0
					c-1.648-0.009-1.409,0.104-1.409-1.365c-0.01-14.91,0-29.809,0-44.726c0-6.036,0-12.081,0-18.121
					c0-1.229-0.103-1.149,1.098-1.149c7.614,0.007,15.232,0,22.834,0.027c2.577,0.009,5.134,0.225,7.636,0.866
					c5.466,1.388,9.408,4.668,11.422,9.898c2.93,7.653,2.122,15.004-2.539,21.81C242.424,213.471,240.311,215.088,237.738,216.289z
					 M212.345,198.146c0,3.49,0,6.957,0,10.423c0,0.046,0,0.073,0,0.111c0.009,0.989,0.009,0.994,1.042,0.994
					c1.878,0,3.751,0.03,5.615,0c3.372-0.038,6.746,0.099,10.109-0.167c4.834-0.397,8.309-3.31,9.367-8.049
					c0.46-1.963,0.492-3.913,0.211-5.908c-0.622-4.422-3.516-7.596-7.854-8.509c-1.625-0.33-3.294-0.45-4.969-0.46
					c-4.127-0.011-8.26-0.009-12.39-0.009c-0.206,0-0.417,0.009-0.634,0.009c-0.341-0.009-0.492,0.18-0.492,0.516
					c0,0.241-0.004,0.485-0.004,0.726C212.345,191.259,212.345,194.71,212.345,198.146z"/>
				<path fill="#FF8500" d="M289.002,231.402c0.299,0.125,0.374,0.375,0.502,0.572c0.954,1.694,1.915,3.397,2.865,5.09
					c0.44,0.795,0.44,0.802-0.262,1.343c-3.368,2.674-7.171,4.461-11.37,5.358c-5.654,1.241-11.195,0.846-16.515-1.467
					c-6.101-2.639-10.326-7.146-12.479-13.38c-2.481-7.215-2.071-14.398,1.318-21.244c3.043-6.186,8.135-9.902,14.867-11.306
					c3.92-0.821,7.856-0.749,11.719,0.405c5.097,1.548,8.835,4.706,11.271,9.426c2.375,4.622,2.961,9.561,2.375,14.683
					c-0.032,0.391-0.225,0.529-0.598,0.51c-0.277-0.009-0.559,0-0.839,0c-10.377,0-20.765,0-31.151,0
					c-1.326,0-1.301-0.13-1.175,1.229c0.726,7.575,5.652,12.564,12.492,13.773c6.037,1.039,11.303-0.771,16.115-4.313
					C288.445,231.856,288.74,231.613,289.002,231.402z M259.792,214.709c0.341,0,0.628,0,0.895,0c7.574,0,15.135,0,22.732,0
					c0.093,0,0.192-0.01,0.314,0c0.473,0.051,0.669-0.113,0.646-0.639c-0.047-0.63-0.122-1.23-0.244-1.859
					c-0.563-2.813-1.812-5.23-4.141-7c-2.768-2.111-5.958-2.598-9.275-2.127C264.818,203.91,260.429,208.621,259.792,214.709z"/>
				<path fill="#FF8500" d="M348.191,239.89c-0.993,0.531-1.84,1-2.717,1.444c-2.516,1.278-5.129,2.49-7.972,2.834
					c-6.587,0.851-12.353-0.791-16.788-5.942c-1.859-2.127-2.727-4.71-2.854-7.551c-0.084-2.308,0.149-4.586,0.922-6.774
					c1.178-3.333,3.636-5.528,6.571-7.248c2.376-1.391,4.978-2.063,7.712-2.365c4.078-0.458,8.178-0.199,12.281-0.263
					c0.656-0.017,1.315-0.004,1.961,0c0.377,0,0.596-0.131,0.588-0.537c0-1.313,0.089-2.649-0.292-3.935
					c-0.901-3.073-3.667-5.314-6.879-5.721c-4.157-0.486-8.095,0.336-11.931,1.795c-1.205,0.461-2.352,1.022-3.529,1.549
					c-0.684,0.304-0.684,0.322-1.035-0.29c-0.99-1.753-1.967-3.522-2.958-5.274c-0.245-0.403-0.245-0.622,0.208-0.894
					c6.139-3.721,12.747-5.402,19.914-4.732c3.4,0.328,6.568,1.354,9.388,3.359c3.063,2.151,4.688,5.138,5.254,8.761
					c0.28,1.714,0.372,3.452,0.372,5.186c0.023,9.04,0.03,18.075,0.03,27.107c0,0.96-0.034,1.937-0.007,2.901
					c0.007,0.495-0.151,0.668-0.67,0.668c-2.25-0.029-4.508-0.019-6.775-0.029c-0.775-0.009-0.782-0.028-0.799-0.824
					C348.186,242.078,348.191,241.063,348.191,239.89z M347.896,226.221c0-1.442,0-2.909,0.008-4.363
					c0.011-0.501-0.174-0.676-0.67-0.666c-1.268,0.016-2.564-0.01-3.848,0.008c-2.709,0.037-5.416-0.123-8.115,0.159
					c-2.098,0.22-4.107,0.704-5.883,1.875c-3.547,2.32-4.365,6.76-1.883,10.188c1.411,1.938,3.404,2.86,5.695,3.113
					c5.489,0.644,10.25-1.022,14.193-4.959c0.389-0.37,0.517-0.77,0.517-1.294C347.896,228.938,347.896,227.573,347.896,226.221z"/>
				<path fill="#FF8500" d="M501.998,197.713c0.288-0.197,0.533-0.146,0.766-0.146c2.502,0,4.994,0.029,7.491-0.016
					c0.646-0.006,0.921,0.246,1.132,0.79c2.203,5.212,4.418,10.415,6.611,15.632c2.389,5.618,4.768,11.247,7.134,16.859
					c0.066,0.159,0.155,0.311,0.243,0.508c0.403-0.233,0.422-0.647,0.525-0.969c3.334-9.239,6.641-18.488,9.954-27.719
					c0.506-1.47,1.039-2.945,1.568-4.416c0.122-0.376,0.232-0.679,0.749-0.675c2.709,0.019,5.43,0.017,8.131,0.028
					c0.071,0,0.115,0.049,0.193,0.073c0.122,0.36-0.107,0.671-0.221,0.978c-6.739,18.25-13.519,36.495-20.254,54.757
					c-2.301,6.209-6.881,9.15-13.248,9.69c-0.843,0.068-1.668,0.068-2.51,0.097c-0.463,0.009-0.666-0.201-0.654-0.699
					c0.003-2.148,0.003-4.294,0-6.457c-0.012-0.518,0.236-0.649,0.701-0.631c0.835,0.035,1.668,0.017,2.487-0.128
					c2.868-0.528,4.835-2.198,5.903-4.875c0.861-2.161,1.578-4.382,2.392-6.539c0.178-0.485,0.019-0.874-0.163-1.303
					c-2.262-5.336-4.512-10.67-6.764-16.013c-3.936-9.294-7.873-18.586-11.801-27.899
					C502.227,198.342,502.117,198.024,501.998,197.713z"/>
				<path fill="#FF8500" d="M408.59,197.567c1.198,0,2.332,0,3.484,0c1.568,0,3.121,0,4.693,0c0.853,0,0.857,0.012,1.175,0.826
					c2.091,5.376,4.169,10.744,6.245,16.098c2.094,5.336,4.158,10.683,6.24,16.013c0.098,0.281,0.158,0.582,0.406,0.828
					c0.328-0.281,0.369-0.674,0.502-1.028c4.107-10.555,8.217-21.138,12.33-31.701c0.447-1.135,0.158-1.026,1.45-1.037
					c2.332,0,4.671,0,6.993,0.011c0.336,0,0.684-0.092,1.072,0.149c-0.23,0.608-0.453,1.222-0.696,1.826
					c-5.692,14.42-11.373,28.853-17.055,43.278c-0.077,0.162-0.146,0.304-0.198,0.474c-0.131,0.479-0.43,0.632-0.913,0.632
					c-2.317-0.031-4.651-0.041-6.993,0c-0.568,0.008-0.85-0.207-1.041-0.732c-1.162-3.015-2.352-6.005-3.517-9.021
					c-4.62-11.787-9.241-23.575-13.848-35.359C408.782,198.466,408.57,198.132,408.59,197.567z"/>
				<path fill="#FF8500" d="M365.246,216.909c0-3.438,0-6.887,0-10.322c0-0.239,0-0.487,0-0.724
					c-0.019-1.106-0.019-1.106-1.076-1.109c-0.872,0-1.733-0.023-2.598,0.003c-0.532,0.021-0.72-0.162-0.72-0.716
					c0.024-1.92,0.021-3.823,0.021-5.734c0-0.697,0.016-0.713,0.766-0.731c0.872,0,1.733,0.011,2.619,0c0.975,0,0.992,0,0.992-1.053
					c0-2.814,0-5.629,0-8.445c0-1.554-0.018-3.125,0-4.689c0.007-0.749,0.025-0.771,0.724-0.771c2.478-0.018,4.939-0.018,7.404,0
					c0.782,0,0.797,0.022,0.797,0.819c0,4.133,0,8.274,0,12.416c0,0.3,0,0.619,0,0.927c0.023,0.776,0.023,0.789,0.837,0.789
					c3.396,0,6.804,0,10.217,0c0.967,0,0.967,0.019,0.975,0.967c0,1.775,0,3.542,0,5.317c-0.008,0.893-0.019,0.902-0.942,0.902
					c-3.278,0-6.534,0-9.808,0c-0.23,0-0.486,0.002-0.72,0c-0.405-0.01-0.564,0.175-0.554,0.563c0,0.217,0,0.431,0,0.633
					c0,6.494,0,12.995,0,19.48c0,1.269,0.099,2.502,0.396,3.711c0.985,4.196,3.998,6.448,8.166,6.822
					c0.932,0.081,1.864,0.085,2.791-0.024c0.511-0.053,0.688,0.149,0.678,0.646c-0.008,2.177-0.008,4.368,0,6.559
					c0,0.492-0.208,0.689-0.678,0.708c-3.705,0.207-7.354,0.041-10.854-1.349c-4.717-1.88-7.602-5.334-8.797-10.234
					c-0.448-1.815-0.629-3.691-0.629-5.566C365.246,223.451,365.246,220.172,365.246,216.909z"/>
				<path fill="#FF8500" d="M500.184,204.659c-0.586,0.2-1.031,0.092-1.479,0.092c-3.13,0.008-6.265,0.005-9.388,0.005
					c-0.934,0-0.95,0.003-0.95,0.996c0,6.729,0,13.476,0,20.197c0,1.324,0.163,2.641,0.543,3.907
					c1.021,3.251,3.255,5.156,6.552,5.899c1.352,0.299,2.752,0.288,4.123,0.218c0.68-0.049,0.718-0.024,0.73,0.644
					c0.006,2.158-0.013,4.31,0.006,6.465c0.012,0.524-0.147,0.759-0.699,0.787c-3.799,0.207-7.555,0.012-11.133-1.504
					c-4.863-2.045-7.584-5.773-8.63-10.845c-0.313-1.545-0.429-3.096-0.429-4.658c0.008-6.81,0-13.618,0-20.423
					c0-0.208,0-0.414,0-0.642c-0.018-0.974-0.018-0.993-1.033-1.023c-0.881-0.023-1.75-0.029-2.617-0.016
					c-0.515,0.01-0.744-0.106-0.73-0.698c0.013-1.943,0.013-3.883,0-5.823c-0.01-0.498,0.148-0.687,0.651-0.67
					c0.94,0.029,1.882,0.012,2.81,0c0.902,0,0.92-0.016,0.92-0.925c0-4.208,0-8.406,0-12.62c0.008-1.657-0.221-1.402,1.456-1.41
					c2.185-0.01,4.374,0,6.562,0c0.898,0,0.917,0.008,0.917,0.918c0,4.167,0,8.331,0,12.51c0,0.209,0,0.414,0,0.629
					c0.006,0.898,0.006,0.901,0.913,0.901c2.375,0,4.738,0.029,7.096-0.003c0.649-0.017,0.964,0.198,1.221,0.813
					c0.76,1.894,1.588,3.777,2.387,5.66C500.065,204.229,500.095,204.41,500.184,204.659z"/>
				<path fill="#FF8500" d="M298.928,206.034c0-8.764,0-17.507,0.006-26.252c0-1.245-0.129-1.137,1.109-1.137
					c2.352,0,4.709-0.009,7.078,0c0.73,0,0.73,0.019,0.749,0.752c0.005,0.232,0.005,0.48,0.005,0.719c0,16.359,0,32.717,0,49.068
					c0,0.998,0.023,1.994,0.225,3.009c0.525,2.576,1.907,3.751,4.552,3.773c0.058,0,0.124,0,0.194,0c1.498,0,1.498,0,1.498,1.549
					c0,1.828,0,3.669,0,5.521c-0.008,0.787-0.023,0.795-0.814,0.836c-2.039,0.1-4.095,0.162-6.123-0.271
					c-4.432-0.97-7.041-3.746-8.033-8.141c-0.309-1.428-0.45-2.883-0.45-4.343C298.934,222.757,298.928,214.389,298.928,206.034z"/>
				<path fill="#FF8500" d="M402.555,220.747c0,7.252,0,14.514,0,21.771c0,0.23-0.018,0.481,0,0.711
					c0.043,0.48-0.103,0.695-0.627,0.688c-2.577-0.009-5.139-0.009-7.715,0c-0.459,0-0.633-0.188-0.59-0.621
					c0.006-0.205,0-0.428,0-0.621c0-14.621,0-29.234,0-43.853c0-1.344-0.142-1.259,1.209-1.259c2.261,0,4.519,0,6.777,0
					c0.934,0,0.945,0.016,0.945,0.988C402.555,205.947,402.555,213.349,402.555,220.747z"/>
				<path fill="#FF8500" d="M468.027,220.86c0,7.223,0,14.446,0,21.665c0,0.233-0.02,0.486,0,0.718
					c0.047,0.473-0.117,0.692-0.646,0.682c-2.525-0.021-5.056-0.021-7.604,0c-0.514,0.011-0.66-0.226-0.639-0.691
					c0.029-0.206,0.016-0.426,0.016-0.625c0-14.581-0.016-29.156,0.01-43.739c0-1.445-0.155-1.299,1.256-1.306
					c2.122,0,4.234,0,6.359,0c1.374,0.016,1.237-0.14,1.248,1.211C468.027,206.132,468.027,213.489,468.027,220.86z"/>
				<path fill="#FF8500" d="M457.97,186.526c0-3.136,2.495-5.608,5.626-5.606c3.148,0.008,5.615,2.498,5.625,5.639
					c0.02,3.142-2.453,5.617-5.596,5.648C460.344,192.247,457.824,189.458,457.97,186.526z"/>
				<path fill="#FF8500" d="M392.485,186.55c0-3.149,2.491-5.632,5.626-5.63c3.119,0.008,5.625,2.516,5.645,5.63
					c0.012,3.163-2.517,5.669-5.715,5.661C394.906,192.19,392.485,189.727,392.485,186.55z"/>
				<path fill="#FF8500" d="M551.127,197.567c0-2.814,2.125-5.011,4.883-5.029c2.779-0.013,4.945,2.215,4.938,5.064
					c-0.01,2.776-2.199,4.996-4.92,4.996C553.293,202.592,551.127,200.379,551.127,197.567z M556.047,201.587
					c2.177-0.012,3.863-1.768,3.855-4.035c-0.016-2.262-1.728-4.065-3.863-4.072c-2.146,0-3.844,1.811-3.844,4.088
					C552.195,199.854,553.836,201.593,556.047,201.587z"/>
				<path fill="#FF8500" d="M558.047,200.022c-0.918,0.124-0.918,0.124-1.298-0.592c-0.159-0.341-0.328-0.701-0.519-1.033
					c-0.132-0.25-0.391-0.259-0.648-0.191c-0.274,0.038-0.248,0.276-0.256,0.479c-0.019,0.309-0.019,0.62,0,0.925
					c0.008,0.351-0.107,0.517-0.478,0.509c-0.31-0.003-0.535-0.05-0.535-0.442c0.005-1.403,0.005-2.827,0-4.255
					c0-0.339,0.136-0.496,0.487-0.487c0.543,0,1.116-0.034,1.656,0c0.629,0.041,1.139,0.311,1.39,0.92
					c0.274,0.639,0.225,1.266-0.307,1.705c-0.452,0.39-0.326,0.67-0.107,1.074C557.662,199.092,557.99,199.487,558.047,200.022z
					 M555.33,196.529c-0.016,0.85,0.028,0.881,0.642,0.868c0.604-0.02,0.96-0.316,0.994-0.823c0.019-0.536-0.386-0.823-1.04-0.861
					C555.23,195.678,555.34,196.126,555.33,196.529z"/>
			</g>
		</g>
	</g>
</g>
<text transform="matrix(1 0 0 1 26.6724 244.458)" fill="#F2F2F2" font-family="'HurmeGeometricSans3-ThinOblique'" font-size="90.8356">4</text>
</svg>
