<?xml version="1.0" encoding="utf-8"?>
<!-- Generator: Adobe Illustrator 16.0.0, SVG Export Plug-In . SVG Version: 6.00 Build 0)  -->
<!DOCTYPE svg PUBLIC "-//W3C//DTD SVG 1.1//EN" "http://www.w3.org/Graphics/SVG/1.1/DTD/svg11.dtd">
<svg version="1.1" id="Layer_1" xmlns="http://www.w3.org/2000/svg" xmlns:xlink="http://www.w3.org/1999/xlink" x="0px" y="0px"
	 width="546.334px" height="418.167px" viewBox="0 0 546.334 418.167" enable-background="new 0 0 546.334 418.167"
	 xml:space="preserve">
<g id="Layer_1_1_">
</g>
<path fill="#00CBFF" d="M543.913,156.267c-2.65-35.847-14.452-60.264-35.071-72.599c-13.832-8.27-25.255-18.597-36.299-28.59
	c-4.381-3.963-8.72-7.885-13.151-11.644c-2.057-1.845-3.942-3.36-5.549-4.563c-18.556-14.747-39.624-25.873-72.596-24.797
	c-0.323,0.035-32.303,3.252-107.383-9.733c-36.8-6.37-55.131,12.229-55.891,13.023l-0.614,0.829
	c-0.069,0.116-7.508,11.703-43.104,7.267c-27.911-3.504-72.785,8.728-108.778,38.425l0,0c-0.427,0.337-3.608,2.527-7.412,7.35
	c-3.171,2.951-6.266,6.029-9.245,9.267c-22.414,24.378-66.776,86.311-38.904,171.921l0,0c0.198,0.492,0.243,1.141,0.556,1.643
	c3.353,10.003,7.677,20.319,13.152,30.939c50.005,96.983,146.044,77.09,147.007,76.883l0.522-0.153
	c0.431-0.157,43.994-15.513,90.377,10.917c8.636,4.92,18.217,7.368,28.552,7.368c12.581,0,26.282-3.638,40.732-10.857
	c-0.152,5.057,1.416,10.813,4.556,16.034c5.988,9.983,16.178,16.113,27.958,16.837c0.706,0.04,1.394,0.063,2.083,0.063
	c12.053,0,21.384-6.544,30.008-16.335c2.588,1.695,5.402,3.274,8.472,4.719c11.259,5.279,20.393,10.25,27.723,14.239
	c11.979,6.512,20.085,10.917,26.921,10.917c1.553,0,3.038-0.226,4.485-0.695c4.864-1.612,8.69-5.897,12.413-13.896
	c4.752-10.238,2.875-26.817,0.885-44.367c-0.459-4.044-0.919-8.108-1.306-12.118c1.884-0.452,3.835-0.993,5.88-1.67
	c33.274-11.015,34.176-51.291,33.452-65.181c9.892-10.121,17.575-22.489,21.276-37.084
	C539.003,227.282,546.582,192.361,543.913,156.267z M523.712,110.702c-9.625-7.612-22.197-12.487-36.158-16.29
	c-1.364-7.781-3.584-14.717-6.297-20.858c7.164,6.045,14.806,11.889,23.436,17.049C512.781,95.439,519.004,102.369,523.712,110.702z
	 M480.525,102.533c1.129,11.657-5.967,21.833-16.804,30.458c-26.762-5.733-51.821-2.842-52.326-2.778
	c-0.25,0.031-24.954,2.892-57.823-6.016c-14.578-3.953-32.258-10.702-50.682-22.162c5.693-6.691,13.038-12.853,22.491-17.913
	c17.345-9.284,26.598-20.436,27.507-33.148c0.86-12.082-6.12-22.711-12.412-29.718c10.483,0.841,18.818,1.186,25.178,1.284
	c-2.612,4.872-5.141,12.198-3.544,20.777c2.442,13.169,13.673,24.734,33.37,34.393c18.539,9.08,40.104,13.557,60.95,17.884
	c8.284,1.719,16.321,3.388,23.896,5.27C480.391,101.422,480.471,101.967,480.525,102.533z M384.518,359.738
	c-5.067-17.004,5.647-34.698,5.635-34.698c0.14-0.194,0.519-0.725,1.078-1.545c9.465-6.231,23.646-12.657,41.38-12.054
	c10.889,0.388,23.675-1.618,36.517-5.977c-3.303,9.121-3.56,20.551-2.767,32.398c-9.104,0.941-15.773-1.002-21.433-2.668
	c-9.928-2.924-19.306-5.67-31.1,11.146c-2.687,3.828-5.244,7.594-7.72,11.251c-4.18,6.171-8.088,11.954-11.961,17.022
	C389.414,370.311,386.188,365.34,384.518,359.738z M432.886,303.371c-12.979-0.431-24.171,2.419-33.295,6.363
	c2.771-5.087,5.753-11.163,8.36-17.815c32.602-5.114,67.723-6.486,80.816-4.816c-0.771,0.325-1.679,0.669-2.732,1.048
	c-4.471,1.601-7.999,3.981-10.776,6.962C462.725,300.683,448.441,303.924,432.886,303.371z M192.904,276.446
	c-11.722-39.192-55.708-40.417-56.378-40.417c-1.711,0.081-27.391,0.732-50.607-15.101c-2.156-9.507-3.091-20.304-2.33-32.577
	c4.069-65.658,41.214-80.267,78.421-88.172c6.066,16.391,20.473,30.079,25.387,33.285c7.344,4.789,26.844,17.512,24.097,47.161
	c-0.361,3.896-0.881,8.126-1.432,12.589c-2.721,22.17-6.416,52.257,6.482,75.344c-7.531,6.181-14.837,10.538-21.659,13.6
	C194.171,280.359,193.507,278.461,192.904,276.446z M187.378,285.104c-19.455,6.5-33.454,2.661-34.437,2.378l-0.595-0.163
	c-13.206-3.539-49.065-16.557-63.189-55.324c23.688,12.772,47.141,12.117,47.46,12.11c0.379,0.006,38.5,1.056,48.547,34.656
	C185.822,280.962,186.565,283.071,187.378,285.104z M311.364,18.189c5.802,0.74,11.207,1.361,16.235,1.88
	c4.36,3.594,18.235,16.193,17.229,30.335c-0.695,9.757-8.526,18.708-23.261,26.595c-10.786,5.774-19.066,12.903-25.413,20.653
	c-13.591-9.248-27.424-21.159-40.586-36.484c10.648,4.117,20.73,7.791,31.344,7.371c16.003-0.661,34.152-1.408,33.835-29.986
	C320.644,29.474,316.652,22.913,311.364,18.189z M286.58,60.471c-9.403,0.398-19.378-3.464-29.9-7.534
	c-3.572-1.389-7.23-2.803-10.986-4.11c-0.054-0.072-0.107-0.144-0.16-0.215c1.114-1.507,2.304-3.074,3.589-4.707
	c5.746-7.308,12.856-11.405,21.125-12.168c17.796-1.62,36.356,11.952,41.671,16.176C309.542,58.965,301.44,59.856,286.58,60.471z
	 M240.603,55.63c0.038,0.012,0.075,0.026,0.112,0.039c16.1,21.132,33.542,36.822,50.641,48.492
	c-19.798,29.878-14.938,65.58-14.324,69.506c0.068,1.987,0.777,10.917,7.63,19.118c-37.534,15.192-60.119,35.134-66.416,58.343
	c-4.901-18.336-2.311-39.44-0.163-56.929c0.56-4.55,1.085-8.857,1.459-12.821c3.198-34.506-20.079-49.689-27.73-54.685
	c-3.885-2.533-16.266-14.452-21.775-28.129c2.259-0.44,4.513-0.865,6.741-1.286c4.064-0.765,8.041-1.513,11.884-2.306
	c30.76-6.366,35.28-11.806,44.925-28.049C235.536,63.646,237.744,59.923,240.603,55.63z M291.359,198.91
	c18.259,12.784,50.155,10.937,94.829-5.505c41.981-15.454,73.585-15.229,93.928,0.629c27.445,21.401,26.658,65.726,26.013,76.611
	c-3.164,4.756-6.273,8.248-8.676,10.606c-9.693-5.046-49.536-3.573-86.479,2.091c5.915-19.007,7.345-40.866-7.188-57.36
	c-9.602-10.898-20.253-16.424-31.667-16.424h-0.023c-17.974,0.011-31.255,13.853-33.068,15.838
	c-2.552,2.202-36.256,30.658-60.435,17.185c-10.718-5.98-20.404-7.65-28.803-4.977c-9.075,2.896-13.481,10.017-14.559,11.989
	c-3.531,4.336-7.068,8.198-10.578,11.651c2.372-30.172,34.699-50.018,66.68-62.354C291.342,198.897,291.351,198.904,291.359,198.91z
	 M226.64,62.795c-8.356,14.071-10.876,18.319-39.613,24.263c-3.798,0.784-7.732,1.527-11.74,2.285
	c-2.473,0.463-4.979,0.932-7.509,1.427c-0.311-1.822-0.456-3.646-0.415-5.459c0.264-9.773,6.265-18.133,17.852-24.851
	c11.561-6.703,21.955-9.152,31.625-9.152c5.413,0,10.597,0.773,15.633,1.982C230.185,56.836,228.315,59.976,226.64,62.795z
	 M220.985,275.338c5.437,7.112,12.892,13.303,22.983,18.021l4.167,1.944c6.563,3.071,12.59,5.889,18.258,8.408
	c-4.175,2.57-8.432,4.548-12.602,5.529c-12.568,2.957-40.66,6.049-55.45-19.845C205.532,286.168,213.167,281.643,220.985,275.338z
	 M251.56,287.989l-4.173-1.952c-8.907-4.159-15.459-9.651-20.232-16.024c4.849-4.465,9.742-9.646,14.605-15.645l0.51-0.806
	c0.027-0.064,3.033-6.045,9.976-8.263c6.177-1.965,13.719-0.517,22.413,4.332c30.068,16.78,68.289-16.896,69.899-18.346l0.343-0.341
	c0.119-0.135,11.865-13.297,27.199-13.305h0.014c8.997,0,17.609,4.603,25.609,13.682c5.83,6.614,8.521,14.463,9.155,22.717
	l-0.478-0.394c-16.063,19.5-43.105,14.767-62.964,7.362c-29.637-11.058-39.842,4.914-41.454,7.91
	c-1.559,2.112-13.487,17.986-27.867,29.351C267.302,295.353,259.903,291.894,251.56,287.989z M308.704,273.416l0.391-0.678
	c0.067-0.139,6.547-13.476,31.516-4.167c28.077,10.474,50.692,9.159,66.027-3.716c-0.756,6.771-2.534,13.574-4.797,19.984
	c-18.78,3.289-36.031,7.657-47.138,12.772c-30.216,13.906-47.988,13.274-72.095,4.104
	C297.072,289.388,308.002,274.393,308.704,273.416z M514.261,254.813c-1.055-19.599-6.624-49.546-29.149-67.127
	c-22.691-17.725-56.912-18.348-101.717-1.863c-45.167,16.625-69.262,15.085-82.063,9.439c28.397-9.708,53.942-13.587,54.575-13.681
	c4.022-0.692,72.674-12.873,109.651-39.94c24.24,5.946,48.645,19.875,53.515,51.411
	C523.257,220.146,519.838,240.345,514.261,254.813z M420.46,155.656c-32.238,12.071-65.603,17.906-65.83,17.948
	c-1.322,0.195-30.465,4.536-61.845,16.054c-7.506-7.188-7.678-15.956-7.682-16.348l-0.063-0.733
	c-0.34-1.878-6.07-35.852,12.95-64.073c19.558,12.262,38.366,19.425,53.838,23.59c34.318,9.239,59.498,6.264,60.556,6.134
	c0.429-0.049,19.894-2.284,42.147,1.212C444.106,145.955,431.889,151.378,420.46,155.656z M381.813,22.126
	c27.601-0.819,46.481,7.876,62.921,20.018l-0.126,0.222c0.07,0.04,1.67,0.978,4.156,2.856c1.18,0.929,2.351,1.871,3.511,2.83
	c8.469,7.257,21.559,21.646,26.594,44.155c-6.754-1.607-13.734-3.06-20.789-4.524c-20.363-4.223-41.422-8.591-59.039-17.233
	c-17.233-8.442-26.979-18.039-28.976-28.521c-1.769-9.321,3.319-16.981,5.205-19.432C379.449,22.377,381.565,22.157,381.813,22.126z
	 M173.262,33.477c37.92,4.72,48.62-7.438,50.808-10.782c2.348-2.208,18.076-15.641,48.421-10.392
	c3.868,0.669,7.589,1.49,11.23,2.077l0,0c0.288,0.041,28.431,4.3,28.935,23.965c-8.789-6.246-25.81-16.25-43.122-14.657
	c-10.577,0.971-19.584,6.089-26.765,15.223c-2.028,2.579-3.834,4.996-5.466,7.276c-16.196-4.452-34.418-5.313-56.141,7.278
	c-14.176,8.222-21.533,18.862-21.873,31.631c-0.064,2.439,0.144,4.878,0.571,7.284c-38.63,8.272-79.927,24.413-84.335,95.476
	c-0.571,9.205-0.227,17.646,0.841,25.394c-10.523-9.944-19.636-24.206-24.445-44.656c-11.933-50.719,2.457-79.218,11.745-91.436
	C92.301,51.091,137.799,29.075,173.262,33.477z M168.668,354.049c-4.716,0.928-81.03,14.61-128.541-56.846
	c18.338,19.699,46.16,37.739,89.726,37.734c2.215,0,4.489-0.047,6.783-0.144c40.092-1.679,69.927,7.268,89.361,16.266
	c-8.23-1.537-15.948-2.131-22.884-2.131C184.171,348.929,170.983,353.232,168.668,354.049z M265.529,365.628
	c-1.524-0.868-3.044-1.688-4.559-2.476c-1.821-1.714-44.102-40.541-124.696-37.193c-72.243,3.072-100.643-46.211-114.328-69.863
	c-1.886-3.259-3.78-5.908-4.983-8.286c-21.281-68.366,5.502-120.62,27.053-148.965c-5.14,16.9-7.301,40.395,0.038,71.597
	c6.362,27.043,19.904,44.163,34.715,55.003c13.311,51.201,60.455,66.723,71.483,69.682l0.426,0.111
	c1.132,0.331,17.689,4.86,40.117-2.858c9.637,17.523,26.005,26.957,46.641,26.955c5.752,0,11.841-0.731,18.207-2.225
	c6.635-1.562,13.31-5.146,19.586-9.614c27.94,11.42,48.01,13.498,82.847-2.544c10.358-4.768,24.755-8.545,40.331-11.408
	c-4.689,10.794-10.099,19.639-12.957,24.021c-8.401,5.762-13.094,11.172-13.438,11.584
	C371.411,329.772,310.959,391.53,265.529,365.628z M363.818,393.962c-9.077-0.552-16.928-5.263-21.52-12.926
	c-3.756-6.26-3.986-12.911-1.999-17.056l-2.087,1.206c0.439-0.252,0.876-0.492,1.316-0.751
	c19.535-11.457,34.057-25.433,37.641-29.02c-2.095,7.476-3.254,16.966-0.411,26.567c2.136,7.22,6.251,13.529,12.259,18.892
	C381.455,389.365,373.633,394.566,363.818,393.962z M468.29,357.585c1.86,16.39,3.615,31.876-0.187,40.053
	c-2.658,5.724-5.083,8.791-7.619,9.623c-4.531,1.493-12.678-2.946-25.003-9.644c-7.432-4.044-16.688-9.071-28.152-14.461
	c-2.438-1.145-4.688-2.379-6.763-3.692c4.071-5.302,8.072-11.204,12.23-17.342c2.451-3.612,4.979-7.351,7.641-11.141
	c8.469-12.069,12.771-10.806,22.21-8.037c6.099,1.801,13.83,4.054,24.385,2.981C467.413,349.837,467.854,353.746,468.29,357.585z
	 M478.35,335.217c-1.386,0.458-2.709,0.833-4.006,1.172c-0.958-14.932-0.061-28.276,6.952-35.776
	c4.879-2.249,9.677-4.849,14.294-7.79c0.643-0.353,1.219-0.706,1.73-1.063l0,0c0.246-0.161,1.387-0.77,2.982-2.104
	c2.059-1.462,4.068-2.998,6.023-4.604C505.965,300.469,501.848,327.434,478.35,335.217z M526.238,243.635
	c3.068-13.767,4.055-30.869,0.82-51.815c-5.145-33.31-29.076-49.116-53.848-56.428c10.006-9.226,16.14-19.959,15.433-32.297
	c23.376,6.759,40.963,16.821,45.138,39.273l0,0c5.395,32.266,0.501,70.642-5.994,96.263
	C527.372,240.268,526.852,241.939,526.238,243.635z"/>
</svg>
